<svg width="23" height="23" viewBox="0 0 23 23" fill="none" xmlns="http://www.w3.org/2000/svg">
<path fill-rule="evenodd" clip-rule="evenodd" d="M21.851 4.3428C22.0424 4.41938 22.2066 4.55171 22.3222 4.7227C22.4379 4.89369 22.4998 5.09551 22.5 5.30211V17.2411C22.4998 17.4477 22.4379 17.6496 22.3222 17.8205C22.2066 17.9915 22.0424 18.1239 21.851 18.2004L11.8822 22.1976C11.6364 22.2961 11.3622 22.2961 11.1164 22.1976L1.14762 18.2004C0.956457 18.1236 0.792607 17.9912 0.677183 17.8203C0.561759 17.6493 0.500048 17.4476 0.5 17.2411L0.5 5.30211C0.500048 5.09567 0.561759 4.89397 0.677183 4.72299C0.792607 4.55202 0.956457 4.4196 1.14762 4.3428L10.7341 0.498667L10.7479 0.494532L11.1164 0.345673C11.3626 0.246755 11.6374 0.246755 11.8836 0.345673L12.2535 0.494532L12.2672 0.498667L21.851 4.3428ZM14.8055 3.0017L6.34375 6.39374L3.03825 5.06918L1.875 5.53643V6.08776L10.8125 9.67139V20.5904L11.5 20.8661L12.1875 20.5904V9.67277L21.125 6.08914V5.53781L19.9618 5.07056L11.5 8.46123L8.1945 7.13666L16.6562 3.74461L14.8055 3.0017Z" fill="#BD00FF"/>
</svg>
