<svg width="24" height="25" viewBox="0 0 24 25" fill="none" xmlns="http://www.w3.org/2000/svg">
<path d="M9 5.51808C8.73478 5.51808 8.48043 5.62343 8.29289 5.81097C8.10536 5.99851 8 6.25286 8 6.51808C8 6.78329 8.10536 7.03765 8.29289 7.22518C8.48043 7.41272 8.73478 7.51808 9 7.51808C9.26522 7.51808 9.51957 7.41272 9.70711 7.22518C9.89464 7.03765 10 6.78329 10 6.51808C10 6.25286 9.89464 5.99851 9.70711 5.81097C9.51957 5.62343 9.26522 5.51808 9 5.51808ZM6.17 5.51808C6.3766 4.93254 6.75974 4.42551 7.2666 4.06686C7.77346 3.70822 8.37909 3.51562 9 3.51562C9.62091 3.51562 10.2265 3.70822 10.7334 4.06686C11.2403 4.42551 11.6234 4.93254 11.83 5.51808H19C19.2652 5.51808 19.5196 5.62343 19.7071 5.81097C19.8946 5.99851 20 6.25286 20 6.51808C20 6.78329 19.8946 7.03765 19.7071 7.22518C19.5196 7.41272 19.2652 7.51808 19 7.51808H11.83C11.6234 8.10361 11.2403 8.61064 10.7334 8.96929C10.2265 9.32793 9.62091 9.52053 9 9.52053C8.37909 9.52053 7.77346 9.32793 7.2666 8.96929C6.75974 8.61064 6.3766 8.10361 6.17 7.51808H5C4.73478 7.51808 4.48043 7.41272 4.29289 7.22518C4.10536 7.03765 4 6.78329 4 6.51808C4 6.25286 4.10536 5.99851 4.29289 5.81097C4.48043 5.62343 4.73478 5.51808 5 5.51808H6.17ZM15 11.5181C14.7348 11.5181 14.4804 11.6234 14.2929 11.811C14.1054 11.9985 14 12.2529 14 12.5181C14 12.7833 14.1054 13.0376 14.2929 13.2252C14.4804 13.4127 14.7348 13.5181 15 13.5181C15.2652 13.5181 15.5196 13.4127 15.7071 13.2252C15.8946 13.0376 16 12.7833 16 12.5181C16 12.2529 15.8946 11.9985 15.7071 11.811C15.5196 11.6234 15.2652 11.5181 15 11.5181ZM12.17 11.5181C12.3766 10.9325 12.7597 10.4255 13.2666 10.0669C13.7735 9.70822 14.3791 9.51562 15 9.51562C15.6209 9.51562 16.2265 9.70822 16.7334 10.0669C17.2403 10.4255 17.6234 10.9325 17.83 11.5181H19C19.2652 11.5181 19.5196 11.6234 19.7071 11.811C19.8946 11.9985 20 12.2529 20 12.5181C20 12.7833 19.8946 13.0376 19.7071 13.2252C19.5196 13.4127 19.2652 13.5181 19 13.5181H17.83C17.6234 14.1036 17.2403 14.6106 16.7334 14.9693C16.2265 15.3279 15.6209 15.5205 15 15.5205C14.3791 15.5205 13.7735 15.3279 13.2666 14.9693C12.7597 14.6106 12.3766 14.1036 12.17 13.5181H5C4.73478 13.5181 4.48043 13.4127 4.29289 13.2252C4.10536 13.0376 4 12.7833 4 12.5181C4 12.2529 4.10536 11.9985 4.29289 11.811C4.48043 11.6234 4.73478 11.5181 5 11.5181H12.17ZM9 17.5181C8.73478 17.5181 8.48043 17.6234 8.29289 17.811C8.10536 17.9985 8 18.2529 8 18.5181C8 18.7833 8.10536 19.0376 8.29289 19.2252C8.48043 19.4127 8.73478 19.5181 9 19.5181C9.26522 19.5181 9.51957 19.4127 9.70711 19.2252C9.89464 19.0376 10 18.7833 10 18.5181C10 18.2529 9.89464 17.9985 9.70711 17.811C9.51957 17.6234 9.26522 17.5181 9 17.5181ZM6.17 17.5181C6.3766 16.9325 6.75974 16.4255 7.2666 16.0669C7.77346 15.7082 8.37909 15.5156 9 15.5156C9.62091 15.5156 10.2265 15.7082 10.7334 16.0669C11.2403 16.4255 11.6234 16.9325 11.83 17.5181H19C19.2652 17.5181 19.5196 17.6234 19.7071 17.811C19.8946 17.9985 20 18.2529 20 18.5181C20 18.7833 19.8946 19.0376 19.7071 19.2252C19.5196 19.4127 19.2652 19.5181 19 19.5181H11.83C11.6234 20.1036 11.2403 20.6106 10.7334 20.9693C10.2265 21.3279 9.62091 21.5205 9 21.5205C8.37909 21.5205 7.77346 21.3279 7.2666 20.9693C6.75974 20.6106 6.3766 20.1036 6.17 19.5181H5C4.73478 19.5181 4.48043 19.4127 4.29289 19.2252C4.10536 19.0376 4 18.7833 4 18.5181C4 18.2529 4.10536 17.9985 4.29289 17.811C4.48043 17.6234 4.73478 17.5181 5 17.5181H6.17Z" fill="#2493AA"/>
</svg>
