<svg width="22" height="23" viewBox="0 0 22 23" fill="none" xmlns="http://www.w3.org/2000/svg">
<path d="M1.75714 21.4212C1.75714 21.8915 2.13167 22.2715 2.59524 22.2715H10.0857V12.2811H1.75714V21.4212ZM11.8667 22.2715H19.3571C19.8207 22.2715 20.1952 21.8915 20.1952 21.4212V12.2811H11.8667V22.2715ZM20.6143 5.90433H16.7486C17.1048 5.33574 17.3143 4.66086 17.3143 3.93815C17.3143 1.91617 15.6931 0.271484 13.7 0.271484C12.6157 0.271484 11.6388 0.760373 10.9762 1.5309C10.3136 0.760373 9.33667 0.271484 8.25238 0.271484C6.25929 0.271484 4.6381 1.91617 4.6381 3.93815C4.6381 4.66086 4.845 5.33574 5.20381 5.90433H1.3381C0.874524 5.90433 0.5 6.28429 0.5 6.75458V10.4744H10.0857V5.90433H11.8667V10.4744H21.4524V6.75458C21.4524 6.28429 21.0779 5.90433 20.6143 5.90433ZM10.0857 5.79805H8.25238C7.24143 5.79805 6.41905 4.96375 6.41905 3.93815C6.41905 2.91255 7.24143 2.07825 8.25238 2.07825C9.26333 2.07825 10.0857 2.91255 10.0857 3.93815V5.79805ZM13.7 5.79805H11.8667V3.93815C11.8667 2.91255 12.689 2.07825 13.7 2.07825C14.711 2.07825 15.5333 2.91255 15.5333 3.93815C15.5333 4.96375 14.711 5.79805 13.7 5.79805Z" fill="#1A7492"/>
</svg>
