<svg width="13" height="18" viewBox="0 0 13 18" fill="none" xmlns="http://www.w3.org/2000/svg">
<path d="M6.33333 0C2.8319 0 0 2.89368 0 6.47149C0 10.3267 3.99905 15.6425 5.64571 17.6672C6.00762 18.1109 6.6681 18.1109 7.03 17.6672C8.66762 15.6425 12.6667 10.3267 12.6667 6.47149C12.6667 2.89368 9.83476 0 6.33333 0ZM6.33333 8.78274C5.08476 8.78274 4.07143 7.7473 4.07143 6.47149C4.07143 5.19569 5.08476 4.16025 6.33333 4.16025C7.5819 4.16025 8.59524 5.19569 8.59524 6.47149C8.59524 7.7473 7.5819 8.78274 6.33333 8.78274Z" fill="#A8D230"/>
</svg>
