<svg width="33" height="23" viewBox="0 0 33 23" fill="none" xmlns="http://www.w3.org/2000/svg">
<path fill-rule="evenodd" clip-rule="evenodd" d="M8.89985 20.2709C9.43026 20.2709 9.93895 20.0602 10.314 19.6851C10.6891 19.31 10.8998 18.8014 10.8998 18.2709C10.8998 17.7405 10.6891 17.2318 10.314 16.8568C9.93895 16.4817 9.43026 16.271 8.89985 16.271C8.36943 16.271 7.86074 16.4817 7.48568 16.8568C7.11062 17.2318 6.89992 17.7405 6.89992 18.2709C6.89992 18.8014 7.11062 19.31 7.48568 19.6851C7.86074 20.0602 8.36943 20.2709 8.89985 20.2709ZM8.89985 22.6708C10.0668 22.6708 11.1859 22.2072 12.011 21.3821C12.8361 20.557 13.2997 19.4378 13.2997 18.2709C13.2997 17.104 12.8361 15.9849 12.011 15.1598C11.1859 14.3346 10.0668 13.8711 8.89985 13.8711C7.73293 13.8711 6.61382 14.3346 5.78868 15.1598C4.96355 15.9849 4.5 17.104 4.5 18.2709C4.5 19.4378 4.96355 20.557 5.78868 21.3821C6.61382 22.2072 7.73293 22.6708 8.89985 22.6708ZM27.6992 20.2709C28.2296 20.2709 28.7383 20.0602 29.1133 19.6851C29.4884 19.31 29.6991 18.8014 29.6991 18.2709C29.6991 17.7405 29.4884 17.2318 29.1133 16.8568C28.7383 16.4817 28.2296 16.271 27.6992 16.271C27.1688 16.271 26.6601 16.4817 26.285 16.8568C25.91 17.2318 25.6993 17.7405 25.6993 18.2709C25.6993 18.8014 25.91 19.31 26.285 19.6851C26.6601 20.0602 27.1688 20.2709 27.6992 20.2709ZM27.6992 22.6708C28.8661 22.6708 29.9852 22.2072 30.8103 21.3821C31.6355 20.557 32.099 19.4378 32.099 18.2709C32.099 17.104 31.6355 15.9849 30.8103 15.1598C29.9852 14.3346 28.8661 13.8711 27.6992 13.8711C26.5323 13.8711 25.4132 14.3346 24.588 15.1598C23.7629 15.9849 23.2993 17.104 23.2993 18.2709C23.2993 19.4378 23.7629 20.557 24.588 21.3821C25.4132 22.2072 26.5323 22.6708 27.6992 22.6708Z" fill="#5DA516"/>
<path d="M23.9852 18.8953C23.5501 18.9721 23.1277 18.6793 23.1309 18.2377C23.1386 17.209 23.5066 16.2155 24.1709 15.43C24.8352 14.6444 25.7537 14.1165 26.7668 13.9379C27.7799 13.7593 28.8236 13.9414 29.7164 14.4525C30.6092 14.9635 31.2947 15.7713 31.6538 16.7354C31.8082 17.1489 31.5106 17.5681 31.0754 17.6449L23.9852 18.8953Z" fill="#5DA516"/>
<path fill-rule="evenodd" clip-rule="evenodd" d="M29.5956 15.3212C29.0685 14.952 28.4521 14.7309 27.8105 14.6808C27.169 14.6308 26.5257 14.7536 25.9477 15.0366C25.3697 15.3195 24.8782 15.7522 24.5242 16.2896C24.1702 16.8271 23.9668 17.4495 23.935 18.0923L30.8484 16.8731C30.5853 16.2481 30.1511 15.7102 29.5956 15.3212ZM26.6277 13.1493C27.8252 12.9382 29.0588 13.1535 30.1141 13.7577C31.1693 14.3619 31.9794 15.3168 32.4035 16.4563C32.7683 17.4339 32.0372 18.2883 31.2148 18.4323L24.1246 19.6834C23.3031 19.8274 22.3239 19.2754 22.3311 18.2323C22.3399 17.0163 22.7746 15.8419 23.5596 14.9133C24.3446 13.9846 25.4302 13.3604 26.6277 13.1493Z" fill="#5DA516"/>
<path d="M4.5 9.07179C4.5 8.43529 4.75285 7.82486 5.20292 7.37479C5.65299 6.92472 6.26342 6.67188 6.89992 6.67188H14.0997C14.7362 6.67188 15.3466 6.92472 15.7967 7.37479C16.2467 7.82486 16.4996 8.43529 16.4996 9.07179V9.87176H4.5V9.07179Z" fill="#5DA516"/>
<path fill-rule="evenodd" clip-rule="evenodd" d="M16.3636 8.27182C16.4516 8.52221 16.4996 8.7918 16.4996 9.07179V9.87177H4.5V9.07179C4.49948 8.75648 4.56119 8.44417 4.68161 8.15276C4.80203 7.86135 4.97879 7.59658 5.20175 7.37362C5.4247 7.15066 5.68948 6.97391 5.98089 6.85349C6.2723 6.73307 6.58461 6.67135 6.89992 6.67188H14.0997C15.1444 6.67188 16.034 7.33985 16.3636 8.27182Z" fill="#5DA516"/>
<path d="M0.5 18.3514C0.5 14.5516 4.11267 11.4717 8.56852 11.4717H15.0243C15.3971 11.4717 15.6995 11.7293 15.6995 12.0477V17.2315C15.6995 18.0266 14.9435 18.6714 14.0107 18.6714H0.875187C0.667994 18.6714 0.5 18.5274 0.5 18.3514Z" fill="#5DA516"/>
<path fill-rule="evenodd" clip-rule="evenodd" d="M14.0995 13.0705H8.56852C5.36303 13.0705 2.98311 14.896 2.29994 17.0703H14.0107C14.0406 17.0706 14.0705 17.0671 14.0995 17.0599V13.0705ZM8.56852 11.4705C4.11267 11.4705 0.5 14.5504 0.5 18.3503C0.5 18.5263 0.667994 18.6703 0.875987 18.6703H14.0107C14.9435 18.6703 15.6995 18.0255 15.6995 17.2303V12.0465C15.6995 11.7281 15.3971 11.4705 15.0243 11.4705H8.56852ZM21.9432 7.12109L20.4993 18.6703H23.2992L25.2991 15.2072V7.47068H23.2992C22.8248 7.47144 22.3581 7.35112 21.9432 7.12109Z" fill="#5DA516"/>
<path d="M20.5 3.07139C20.5 2.32881 20.795 1.61664 21.3201 1.09156C21.8452 0.566473 22.5573 0.271484 23.2999 0.271484H26.4078C26.6798 0.271484 26.8998 0.491476 26.8998 0.763467V5.3793C26.8998 5.65129 26.679 5.87129 26.4078 5.87129H23.2999C22.5573 5.87129 21.8452 5.5763 21.3201 5.05121C20.795 4.52613 20.5 3.81397 20.5 3.07139Z" fill="#5DA516"/>
<path fill-rule="evenodd" clip-rule="evenodd" d="M25.2998 1.87143H23.2999C22.9817 1.87143 22.6764 1.99785 22.4514 2.22289C22.2264 2.44792 22.0999 2.75314 22.0999 3.07139C22.0999 3.38963 22.2264 3.69485 22.4514 3.91988C22.6764 4.14492 22.9817 4.27134 23.2999 4.27134H25.2998V1.87143ZM23.2999 0.271484C22.5573 0.271484 21.8452 0.566473 21.3201 1.09156C20.795 1.61664 20.5 2.32881 20.5 3.07139C20.5 3.81397 20.795 4.52613 21.3201 5.05121C21.8452 5.5763 22.5573 5.87129 23.2999 5.87129H26.4078C26.6798 5.87129 26.8998 5.65049 26.8998 5.3793V0.763467C26.8998 0.632985 26.8479 0.507847 26.7557 0.415583C26.6634 0.323318 26.5383 0.271484 26.4078 0.271484H23.2999Z" fill="#5DA516"/>
<path d="M17.5763 1.07129L21.5161 1.76406L21.2386 3.34001L17.2995 2.64723L17.5763 1.07129ZM14.0996 13.0709H22.0993L20.6874 18.6707H14.0996V13.0709Z" fill="#5DA516"/>
</svg>
